<?xml version="1.0" encoding="UTF-8"?><svg id="Layer_1" xmlns="http://www.w3.org/2000/svg" xmlns:xlink="http://www.w3.org/1999/xlink" viewBox="0 0 32 32"><defs><style>.cls-1{fill:url(#linear-gradient-2);}.cls-2{fill:url(#linear-gradient-3);}.cls-3{fill:url(#linear-gradient);}.cls-4{fill:url(#linear-gradient-4);}</style><linearGradient id="linear-gradient" x1="11.4" y1="29.99" x2="36.68" y2="-4.49" gradientUnits="userSpaceOnUse"><stop offset=".15" stop-color="#051241"/><stop offset=".38" stop-color="#70c38e"/><stop offset=".55" stop-color="#a3cd39"/><stop offset=".69" stop-color="#dedd4a"/></linearGradient><linearGradient id="linear-gradient-2" x1="11.31" y1="17.43" x2="26.83" y2="4.13" gradientUnits="userSpaceOnUse"><stop offset=".14" stop-color="#3d001f"/><stop offset=".37" stop-color="#ed2c24"/><stop offset=".57" stop-color="#fcb619"/><stop offset=".89" stop-color="#ffe405"/></linearGradient><linearGradient id="linear-gradient-3" x1="10.19" y1="8.99" x2="-1.46" y2="25.07" gradientUnits="userSpaceOnUse"><stop offset=".27" stop-color="#3d001f"/><stop offset=".51" stop-color="#ed2c24"/><stop offset=".74" stop-color="#fcb619"/><stop offset=".98" stop-color="#ffe405"/></linearGradient><linearGradient id="linear-gradient-4" x1="11.9" y1="22.7" x2="9.77" y2="4.74" gradientUnits="userSpaceOnUse"><stop offset=".04" stop-color="#530934"/><stop offset=".4" stop-color="#ed2c24"/><stop offset=".66" stop-color="#fcb619"/><stop offset=".98" stop-color="#ffe405"/></linearGradient></defs><path class="cls-3" d="M27.4,5c-.8,0-1.56,.4-2,1.07l-8.58,12.81-3.05,4.55,1.96,3.1c.4,.63,1.31,.64,1.73,.02l2.16-3.23h0S31.9,5,31.9,5h-4.5Z"/><path class="cls-1" d="M16.29,8.84l-3,4.48,2.81,4.44,6.61-9.87h-4.64c-.72,0-1.39,.36-1.79,.95Z"/><path class="cls-2" d="M5.7,10.66L.1,18.88H5.21c.71,0,1.37-.35,1.77-.94l1.8-2.64-3.01-4.65h-.07Z"/><path class="cls-4" d="M13.29,13.31l-1.22-1.92c-.29-.46-.79-.73-1.33-.73H5.68l4.56,7.2,2.11,3.33,.7,1.11,3.05-4.55-2.81-4.44Z"/></svg>