<?xml version="1.0" encoding="utf-8"?>
<svg width="170" height="80" viewBox="2.45 7.162 69.263 68.315" fill="none" xmlns="http://www.w3.org/2000/svg">
  <path d="M36.5705 40.0027L53.8345 34.3291L65.6387 62.812L49.59 42.6365L36.5705 40.0027Z" fill="#6CC7A3"/>
  <path d="M52.5166 23.073C52.9847 27.1292 48.5515 26.9732 46.2764 26.5832L30.4808 26.7782C24.0845 27.5582 20.2754 32.9534 19.1703 35.5535C16.0502 44.2899 21.3804 50.6341 24.4355 52.7142C30.8318 56.7703 36.981 54.6643 39.2561 53.1042L44.5213 49.3991C45.9254 48.151 47.7064 48.489 48.4215 48.814C50.4496 50.3741 49.9165 52.0642 49.3965 52.7142C47.2124 55.3663 43.2863 57.9794 41.5962 58.9544C30.0518 64.8827 20.4054 58.3044 17.0253 54.2742C9.22496 46.3179 12.2151 35.0985 14.6852 30.4833C20.3014 22.371 28.2057 20.6029 31.4558 20.7329L46.6664 20.5379L49.3965 20.3429C51.2686 20.0309 52.2566 22.163 52.5166 23.073Z" fill="#6CC7A3"/>
</svg>