<svg width="170" height="80" viewBox="0 0 170 80" fill="none" xmlns="http://www.w3.org/2000/svg">
<path d="M72.0206 45.8857V42.0469H72.1475C73.9876 43.4005 76.3353 44.0773 79.1905 44.0773C81.4113 44.0773 82.987 43.5803 83.9176 42.5863C84.5521 41.9306 84.8693 40.8308 84.8693 39.2868V38.113C84.4252 38.8533 83.6532 39.4772 82.5534 39.9848C81.4747 40.4924 80.2269 40.7462 78.8098 40.7462C76.293 40.7462 74.2203 40.1011 72.5917 38.811C70.9843 37.5208 70.1806 35.6385 70.1806 33.1639C70.1806 31.7045 70.445 30.4144 70.9737 29.2934C71.5236 28.1725 72.2427 27.2947 73.131 26.6602C74.0405 26.0257 74.9922 25.5604 75.9863 25.2643C76.9803 24.9471 78.0061 24.7885 79.0636 24.7885C80.4172 24.7885 81.6439 25.0105 82.7437 25.4547C83.8435 25.8988 84.5732 26.4593 84.9328 27.1361V25.2326H88.7398V39.0648C88.7398 41.3067 88.3274 43.041 87.5025 44.2677C86.022 46.4461 83.2513 47.5354 79.1905 47.5354C77.6254 47.5354 76.2084 47.3768 74.9394 47.0595C73.6704 46.7423 72.6974 46.351 72.0206 45.8857ZM84.7424 34.9722V30.6259C84.3617 29.8645 83.7166 29.2723 82.8072 28.8493C81.9189 28.4263 80.9037 28.2148 79.7616 28.2148C78.2388 28.2148 76.938 28.6166 75.8594 29.4203C74.7807 30.224 74.2414 31.4402 74.2414 33.0687C74.2414 34.4646 74.7702 35.5221 75.8277 36.2412C76.9063 36.9603 78.1965 37.3199 79.6981 37.3199C80.7979 37.3199 81.8131 37.1084 82.7437 36.6854C83.6743 36.2624 84.3406 35.6913 84.7424 34.9722ZM95.9136 41H91.9163V17.9041H95.9136V41ZM103.127 41H99.0978V25.2326H103.127V41ZM103.381 20.2835C103.381 20.9603 103.169 21.4996 102.746 21.9015C102.344 22.3033 101.805 22.5042 101.128 22.5042C100.473 22.5042 99.9332 22.3139 99.5102 21.9332C99.0872 21.5313 98.8757 20.9814 98.8757 20.2835C98.8757 19.5432 99.0978 18.9828 99.542 18.6021C100.007 18.2214 100.547 18.031 101.16 18.031C101.773 18.031 102.291 18.2214 102.714 18.6021C103.159 18.9828 103.381 19.5432 103.381 20.2835ZM124.33 41H120.523V38.4937C119.994 39.3186 119.191 40.0165 118.112 40.5876C117.055 41.1375 115.764 41.4124 114.242 41.4124C111.788 41.4124 109.684 40.7039 107.928 39.2868C106.173 37.8698 105.295 35.8394 105.295 33.1956C105.295 31.7574 105.559 30.4884 106.088 29.3886C106.638 28.2676 107.357 27.3899 108.246 26.7554C109.155 26.0998 110.128 25.6133 111.164 25.2961C112.222 24.9577 113.322 24.7885 114.464 24.7885C117.065 24.7885 119.074 25.5393 120.491 27.0409V17.9041H124.33V41ZM120.365 34.9088V31.0383C119.963 30.1712 119.254 29.4838 118.239 28.9762C117.245 28.4686 116.209 28.2148 115.13 28.2148C113.544 28.2148 112.179 28.6378 111.037 29.4838C109.916 30.3086 109.356 31.5248 109.356 33.1322C109.356 34.655 109.906 35.8288 111.006 36.6537C112.105 37.4574 113.396 37.8592 114.876 37.8592C115.976 37.8592 117.044 37.5948 118.08 37.0661C119.138 36.5373 119.899 35.8182 120.365 34.9088ZM143.231 39.6041C142.449 40.154 141.412 40.5981 140.122 40.9365C138.853 41.2538 137.552 41.4124 136.22 41.4124C133.195 41.4124 130.816 40.6827 129.082 39.2234C127.347 37.7429 126.48 35.7336 126.48 33.1956C126.48 30.573 127.347 28.5214 129.082 27.0409C130.837 25.5393 133.026 24.7885 135.649 24.7885C138.271 24.7885 140.291 25.4441 141.708 26.7554C143.125 28.0667 143.855 29.8962 143.897 32.2439C143.897 32.8995 143.855 33.608 143.771 34.3694H130.7C130.911 35.5116 131.535 36.3999 132.572 37.0344C133.608 37.6689 134.993 37.9861 136.728 37.9861C139.223 37.9861 141.349 37.3516 143.104 36.0826H143.231V39.6041ZM139.932 31.3556V31.1335C139.932 30.0971 139.53 29.304 138.726 28.7541C137.923 28.2042 136.854 27.9292 135.522 27.9292C134.401 27.9292 133.375 28.1936 132.445 28.7224C131.535 29.2511 130.954 30.1289 130.7 31.3556H139.932ZM150.014 41H146.016V25.2326H149.919V27.8975C150.215 27.115 150.817 26.4064 151.727 25.7719C152.636 25.1374 153.747 24.8202 155.058 24.8202C155.989 24.8202 156.708 24.9682 157.215 25.2643V29.23H157.088C156.454 28.9127 155.65 28.7541 154.677 28.7541C153.472 28.7541 152.457 28.9656 151.632 29.3886C150.828 29.7905 150.289 30.3509 150.014 31.07V41Z" fill="#03254C"/>
<path d="M73.6787 60.2881H73.3098V54.1309H70.7278V53.7715H76.3364V54.1309H73.6787V60.2881ZM76.9759 60.2881H76.6354V53.4026H76.9759V56.5143C77.1776 56.2243 77.4708 55.9878 77.8555 55.805C78.2464 55.6221 78.6878 55.5307 79.1796 55.5307C80.1569 55.5307 80.7433 55.8649 80.9388 56.5333C81.0207 56.8296 81.0617 57.1953 81.0617 57.6304V60.2881H80.7212V57.6588C80.7212 57.1039 80.6424 56.7066 80.4848 56.467C80.2389 56.0761 79.7754 55.8806 79.0945 55.8806C78.6594 55.8806 78.2338 55.9878 77.8176 56.2022C77.4078 56.4166 77.1272 56.6688 76.9759 56.9589V60.2881ZM82.5712 60.2881H82.2308V55.6442H82.5712V60.2881ZM82.7604 54.0742C82.7604 54.1751 82.7257 54.257 82.6564 54.3201C82.5933 54.3831 82.5082 54.4147 82.401 54.4147C82.2938 54.4147 82.2087 54.3863 82.1456 54.3295C82.0826 54.2665 82.0511 54.1814 82.0511 54.0742C82.0511 53.967 82.0826 53.885 82.1456 53.8283C82.215 53.7652 82.3033 53.7337 82.4105 53.7337C82.5113 53.7337 82.5933 53.7652 82.6564 53.8283C82.7257 53.885 82.7604 53.967 82.7604 54.0742ZM84.1488 60.2881H83.8083V55.6442H84.1488V56.5143C84.3506 56.2243 84.6438 55.9878 85.0284 55.805C85.4193 55.6221 85.8607 55.5307 86.3525 55.5307C87.3299 55.5307 87.9194 55.868 88.1212 56.5427C88.1968 56.7949 88.2347 57.1575 88.2347 57.6304V60.2881H87.8942V57.6588C87.8942 57.085 87.8185 56.6877 87.6672 56.467C87.4024 56.0761 86.9358 55.8806 86.2674 55.8806C85.8323 55.8806 85.4067 55.9878 84.9906 56.2022C84.5807 56.4166 84.3001 56.6688 84.1488 56.9589V60.2881ZM89.7442 60.2881H89.4037V53.4026H89.7442V57.9803L92.5532 55.6442H93.0923L91.0021 57.3372L93.5085 60.2881H93.064L90.7467 57.5453L89.7442 58.3586V60.2881ZM97.8576 60.2881H97.4888V54.1309H94.9067V53.7715H100.515V54.1309H97.8576V60.2881ZM104.715 59.8246C104.513 59.9949 104.223 60.1368 103.845 60.2503C103.466 60.3574 103.088 60.411 102.71 60.411C101.821 60.411 101.121 60.1935 100.61 59.7584C100.106 59.3171 99.8534 58.7275 99.8534 57.9898C99.8534 57.2079 100.112 56.5995 100.629 56.1644C101.146 55.723 101.767 55.5023 102.492 55.5023C103.224 55.5023 103.801 55.6978 104.223 56.0887C104.645 56.4734 104.857 57.003 104.857 57.6777C104.857 57.8416 104.847 57.974 104.828 58.0749H100.222C100.235 58.6676 100.459 59.15 100.894 59.522C101.329 59.8877 101.94 60.0706 102.729 60.0706C103.542 60.0706 104.191 59.8593 104.677 59.4369H104.715V59.8246ZM104.497 57.7439V57.6588C104.497 57.1165 104.327 56.6814 103.987 56.3535C103.646 56.0194 103.126 55.8523 102.426 55.8523C102.079 55.8523 101.748 55.9153 101.433 56.0414C101.118 56.1612 100.84 56.3693 100.601 56.6657C100.367 56.962 100.241 57.3214 100.222 57.7439H104.497ZM109.936 59.853C109.728 60.0359 109.451 60.1746 109.104 60.2692C108.757 60.3638 108.404 60.411 108.045 60.411C107.25 60.411 106.588 60.1904 106.059 59.749C105.529 59.3013 105.264 58.7149 105.264 57.9898C105.264 57.2395 105.535 56.6373 106.077 56.1833C106.62 55.7293 107.313 55.5023 108.158 55.5023C108.505 55.5023 108.836 55.5559 109.151 55.6631C109.467 55.764 109.716 55.8933 109.898 56.0509V56.5049H109.861C109.703 56.3094 109.454 56.1518 109.113 56.032C108.773 55.9122 108.445 55.8523 108.13 55.8523C107.449 55.8523 106.862 56.0351 106.371 56.4008C105.879 56.7602 105.633 57.2804 105.633 57.9614C105.633 58.3397 105.709 58.6708 105.86 58.9545C106.011 59.2382 106.21 59.4589 106.456 59.6166C106.708 59.7679 106.97 59.8814 107.241 59.9571C107.512 60.0327 107.793 60.0706 108.083 60.0706C108.795 60.0706 109.397 59.8719 109.889 59.4747H109.936V59.853ZM110.932 60.2881H110.592V53.4026H110.932V56.5143C111.134 56.2243 111.427 55.9878 111.812 55.805C112.203 55.6221 112.644 55.5307 113.136 55.5307C114.113 55.5307 114.7 55.8649 114.895 56.5333C114.977 56.8296 115.018 57.1953 115.018 57.6304V60.2881H114.678V57.6588C114.678 57.1039 114.599 56.7066 114.441 56.467C114.195 56.0761 113.732 55.8806 113.051 55.8806C112.616 55.8806 112.19 55.9878 111.774 56.2022C111.364 56.4166 111.084 56.6688 110.932 56.9589V60.2881ZM120.08 60.2881H119.711V54.1309H117.129V53.7715H122.738V54.1309H120.08V60.2881ZM123.377 60.2881H123.037V53.4026H123.377V56.5143C123.579 56.2243 123.872 55.9878 124.257 55.805C124.648 55.6221 125.089 55.5307 125.581 55.5307C126.558 55.5307 127.145 55.8649 127.34 56.5333C127.422 56.8296 127.463 57.1953 127.463 57.6304V60.2881H127.123V57.6588C127.123 57.1039 127.044 56.7066 126.886 56.467C126.64 56.0761 126.177 55.8806 125.496 55.8806C125.061 55.8806 124.635 55.9878 124.219 56.2022C123.809 56.4166 123.529 56.6688 123.377 56.9589V60.2881ZM128.973 60.2881H128.632V55.6442H128.973V60.2881ZM129.162 54.0742C129.162 54.1751 129.127 54.257 129.058 54.3201C128.995 54.3831 128.91 54.4147 128.803 54.4147C128.695 54.4147 128.61 54.3863 128.547 54.3295C128.484 54.2665 128.453 54.1814 128.453 54.0742C128.453 53.967 128.484 53.885 128.547 53.8283C128.617 53.7652 128.705 53.7337 128.812 53.7337C128.913 53.7337 128.995 53.7652 129.058 53.8283C129.127 53.885 129.162 53.967 129.162 54.0742ZM130.55 60.2881H130.21V55.6442H130.55V56.5143C130.752 56.2243 131.045 55.9878 131.43 55.805C131.821 55.6221 132.262 55.5307 132.754 55.5307C133.731 55.5307 134.321 55.868 134.523 56.5427C134.598 56.7949 134.636 57.1575 134.636 57.6304V60.2881H134.296V57.6588C134.296 57.085 134.22 56.6877 134.069 56.467C133.804 56.0761 133.337 55.8806 132.669 55.8806C132.234 55.8806 131.808 55.9878 131.392 56.2022C130.982 56.4166 130.702 56.6688 130.55 56.9589V60.2881ZM136.146 60.2881H135.805V53.4026H136.146V57.9803L138.955 55.6442H139.494L137.404 57.3372L139.91 60.2881H139.466L137.148 57.5453L136.146 58.3586V60.2881ZM147.778 53.7715V57.498C147.778 58.3114 147.651 58.9104 147.399 59.295C147.191 59.6166 146.879 59.8845 146.463 60.0989C146.047 60.3133 145.533 60.4205 144.921 60.4205C143.603 60.4205 142.736 60.0264 142.32 59.2382C142.125 58.8725 142.027 58.3019 142.027 57.5263V53.7715H142.396V57.4412C142.396 58.2105 142.506 58.7843 142.727 59.1626C142.866 59.4148 143.118 59.626 143.484 59.7963C143.856 59.9665 144.329 60.0516 144.902 60.0516C145.861 60.0516 146.564 59.7616 147.011 59.1815C147.27 58.841 147.399 58.2578 147.399 57.4318V53.7715H147.778ZM148.398 59.8436V59.4179H148.436C148.637 59.6197 148.915 59.7805 149.268 59.9003C149.627 60.0138 150.003 60.0706 150.393 60.0706C151.453 60.0706 151.982 59.749 151.982 59.1058C151.982 58.8915 151.888 58.7181 151.699 58.5856C151.51 58.4532 151.188 58.3271 150.734 58.2073L149.608 57.9141C148.871 57.725 148.502 57.3466 148.502 56.7792C148.502 56.3882 148.682 56.0793 149.041 55.8523C149.4 55.619 149.886 55.5023 150.498 55.5023C150.813 55.5023 151.122 55.5465 151.424 55.6347C151.727 55.7167 151.954 55.8176 152.105 55.9374V56.3725H152.058C151.894 56.2211 151.664 56.0982 151.368 56.0036C151.078 55.9027 150.781 55.8523 150.479 55.8523C149.407 55.8523 148.871 56.1518 148.871 56.7508C148.871 57.0093 148.946 57.2016 149.098 57.3277C149.255 57.4475 149.523 57.5547 149.902 57.6493L151.074 57.952C151.497 58.0591 151.815 58.201 152.03 58.3776C152.244 58.5541 152.351 58.7969 152.351 59.1058C152.351 59.4905 152.19 59.8057 151.869 60.0516C151.547 60.2975 151.046 60.4205 150.365 60.4205C149.987 60.4205 149.612 60.3669 149.24 60.2597C148.874 60.1525 148.593 60.0138 148.398 59.8436Z" fill="#03254C"/>
<path d="M73.6787 60.2881V60.3744H73.7651V60.2881H73.6787ZM73.3098 60.2881H73.2235V60.3744H73.3098V60.2881ZM73.3098 54.1309H73.3962V54.0446H73.3098V54.1309ZM70.7278 54.1309H70.6414V54.2173H70.7278V54.1309ZM70.7278 53.7715V53.6851H70.6414V53.7715H70.7278ZM76.3364 53.7715H76.4228V53.6851H76.3364V53.7715ZM76.3364 54.1309V54.2173H76.4228V54.1309H76.3364ZM73.6787 54.1309V54.0446H73.5923V54.1309H73.6787ZM73.6787 60.2017H73.3098V60.3744H73.6787V60.2017ZM73.3962 60.2881V54.1309H73.2235V60.2881H73.3962ZM73.3098 54.0446H70.7278V54.2173H73.3098V54.0446ZM70.8142 54.1309V53.7715H70.6414V54.1309H70.8142ZM70.7278 53.8579H76.3364V53.6851H70.7278V53.8579ZM76.2501 53.7715V54.1309H76.4228V53.7715H76.2501ZM76.3364 54.0446H73.6787V54.2173H76.3364V54.0446ZM73.5923 54.1309V60.2881H73.7651V54.1309H73.5923ZM76.9759 60.2881V60.3744H77.0622V60.2881H76.9759ZM76.6354 60.2881H76.549V60.3744H76.6354V60.2881ZM76.6354 53.4026V53.3163H76.549V53.4026H76.6354ZM76.9759 53.4026H77.0622V53.3163H76.9759V53.4026ZM76.9759 56.5143H76.8895V56.7897L77.0468 56.5637L76.9759 56.5143ZM77.8555 55.805L77.8189 55.7268L77.8184 55.727L77.8555 55.805ZM80.9388 56.5333L81.022 56.5102L81.0217 56.509L80.9388 56.5333ZM81.0617 60.2881V60.3744H81.1481V60.2881H81.0617ZM80.7212 60.2881H80.6349V60.3744H80.7212V60.2881ZM80.4848 56.467L80.4117 56.513L80.4126 56.5145L80.4848 56.467ZM77.8176 56.2022L77.7781 56.1254L77.7776 56.1257L77.8176 56.2022ZM76.9759 56.9589L76.8993 56.9189L76.8895 56.9377V56.9589H76.9759ZM76.9759 60.2017H76.6354V60.3744H76.9759V60.2017ZM76.7217 60.2881V53.4026H76.549V60.2881H76.7217ZM76.6354 53.489H76.9759V53.3163H76.6354V53.489ZM76.8895 53.4026V56.5143H77.0622V53.4026H76.8895ZM77.0468 56.5637C77.2383 56.2883 77.5187 56.0607 77.8925 55.883L77.8184 55.727C77.423 55.915 77.1169 56.1603 76.905 56.465L77.0468 56.5637ZM77.8921 55.8832C78.27 55.7064 78.6986 55.6171 79.1796 55.6171V55.4443C78.6769 55.4443 78.2228 55.5378 77.8189 55.7268L77.8921 55.8832ZM79.1796 55.6171C79.6596 55.6171 80.034 55.6993 80.3096 55.8564C80.5827 56.012 80.7642 56.244 80.8559 56.5575L81.0217 56.509C80.9179 56.1541 80.7085 55.8849 80.3951 55.7063C80.0844 55.5292 79.6769 55.4443 79.1796 55.4443V55.6171ZM80.8555 56.5563C80.9348 56.8427 80.9754 57.2002 80.9754 57.6304H81.1481C81.1481 57.1905 81.1067 56.8165 81.022 56.5102L80.8555 56.5563ZM80.9754 57.6304V60.2881H81.1481V57.6304H80.9754ZM81.0617 60.2017H80.7212V60.3744H81.0617V60.2017ZM80.8076 60.2881V57.6588H80.6349V60.2881H80.8076ZM80.8076 57.6588C80.8076 57.1002 80.7291 56.6813 80.5569 56.4196L80.4126 56.5145C80.5557 56.732 80.6349 57.1075 80.6349 57.6588H80.8076ZM80.5579 56.4211C80.2895 55.9944 79.7899 55.7943 79.0945 55.7943V55.967C79.7609 55.967 80.1883 56.1578 80.4117 56.513L80.5579 56.4211ZM79.0945 55.7943C78.6446 55.7943 78.2055 55.9053 77.7781 56.1254L77.8572 56.279C78.2621 56.0704 78.6742 55.967 79.0945 55.967V55.7943ZM77.7776 56.1257C77.3584 56.345 77.0615 56.608 76.8993 56.9189L77.0524 56.9988C77.1929 56.7297 77.4572 56.4882 77.8577 56.2787L77.7776 56.1257ZM76.8895 56.9589V60.2881H77.0622V56.9589H76.8895ZM82.5712 60.2881V60.3744H82.6576V60.2881H82.5712ZM82.2308 60.2881H82.1444V60.3744H82.2308V60.2881ZM82.2308 55.6442V55.5578H82.1444V55.6442H82.2308ZM82.5712 55.6442H82.6576V55.5578H82.5712V55.6442ZM82.6564 54.3201L82.5982 54.2561L82.5953 54.259L82.6564 54.3201ZM82.1456 54.3295L82.0845 54.3907L82.0879 54.3937L82.1456 54.3295ZM82.1456 53.8283L82.2034 53.8925L82.2037 53.8922L82.1456 53.8283ZM82.6564 53.8283L82.595 53.8896L82.6017 53.8951L82.6564 53.8283ZM82.5712 60.2017H82.2308V60.3744H82.5712V60.2017ZM82.3171 60.2881V55.6442H82.1444V60.2881H82.3171ZM82.2308 55.7306H82.5712V55.5578H82.2308V55.7306ZM82.4849 55.6442V60.2881H82.6576V55.6442H82.4849ZM82.674 54.0742C82.674 54.1528 82.6481 54.2108 82.5983 54.2562L82.7145 54.384C82.8033 54.3032 82.8468 54.1973 82.8468 54.0742H82.674ZM82.5953 54.259C82.5516 54.3027 82.4902 54.3283 82.401 54.3283V54.501C82.5261 54.501 82.635 54.4636 82.7174 54.3811L82.5953 54.259ZM82.401 54.3283C82.3093 54.3283 82.2467 54.3043 82.2034 54.2653L82.0879 54.3937C82.1706 54.4682 82.2783 54.501 82.401 54.501V54.3283ZM82.2067 54.2685C82.163 54.2248 82.1374 54.1634 82.1374 54.0742H81.9647C81.9647 54.1993 82.0021 54.3082 82.0846 54.3906L82.2067 54.2685ZM82.1374 54.0742C82.1374 53.9845 82.1631 53.9287 82.2034 53.8925L82.0879 53.7641C82.002 53.8413 81.9647 53.9494 81.9647 54.0742H82.1374ZM82.2037 53.8922C82.2549 53.8456 82.3215 53.82 82.4105 53.82V53.6473C82.2851 53.6473 82.1751 53.6848 82.0875 53.7644L82.2037 53.8922ZM82.4105 53.82C82.4917 53.82 82.5506 53.8446 82.5953 53.8893L82.7174 53.7672C82.636 53.6858 82.531 53.6473 82.4105 53.6473V53.82ZM82.6017 53.8951C82.647 53.9322 82.674 53.9873 82.674 54.0742H82.8468C82.8468 53.9467 82.8044 53.8378 82.7111 53.7614L82.6017 53.8951ZM84.1488 60.2881V60.3744H84.2352V60.2881H84.1488ZM83.8083 60.2881H83.722V60.3744H83.8083V60.2881ZM83.8083 55.6442V55.5578H83.722V55.6442H83.8083ZM84.1488 55.6442H84.2352V55.5578H84.1488V55.6442ZM84.1488 56.5143H84.0624V56.7897L84.2197 56.5637L84.1488 56.5143ZM85.0284 55.805L84.9918 55.7268L84.9913 55.727L85.0284 55.805ZM88.1212 56.5427L88.0384 56.5675L88.0385 56.5675L88.1212 56.5427ZM88.2347 60.2881V60.3744H88.321V60.2881H88.2347ZM87.8942 60.2881H87.8078V60.3744H87.8942V60.2881ZM87.6672 56.467L87.5957 56.5155L87.596 56.5159L87.6672 56.467ZM84.9906 56.2022L84.951 56.1254L84.9505 56.1257L84.9906 56.2022ZM84.1488 56.9589L84.0722 56.9189L84.0624 56.9377V56.9589H84.1488ZM84.1488 60.2017H83.8083V60.3744H84.1488V60.2017ZM83.8947 60.2881V55.6442H83.722V60.2881H83.8947ZM83.8083 55.7306H84.1488V55.5578H83.8083V55.7306ZM84.0624 55.6442V56.5143H84.2352V55.6442H84.0624ZM84.2197 56.5637C84.4113 56.2883 84.6917 56.0607 85.0655 55.883L84.9913 55.727C84.5959 55.915 84.2899 56.1603 84.0779 56.465L84.2197 56.5637ZM85.065 55.8832C85.443 55.7064 85.8716 55.6171 86.3525 55.6171V55.4443C85.8498 55.4443 85.3957 55.5378 84.9918 55.7268L85.065 55.8832ZM86.3525 55.6171C86.8324 55.6171 87.2076 55.7 87.4848 55.8587C87.7596 56.0159 87.9436 56.2505 88.0384 56.5675L88.2039 56.518C88.0969 56.1603 87.8854 55.8889 87.5706 55.7087C87.2583 55.53 86.85 55.4443 86.3525 55.4443V55.6171ZM88.0385 56.5675C88.1105 56.8077 88.1483 57.1603 88.1483 57.6304H88.321C88.321 57.1546 88.2832 56.7821 88.2039 56.5179L88.0385 56.5675ZM88.1483 57.6304V60.2881H88.321V57.6304H88.1483ZM88.2347 60.2017H87.8942V60.3744H88.2347V60.2017ZM87.9806 60.2881V57.6588H87.8078V60.2881H87.9806ZM87.9806 57.6588C87.9806 57.0835 87.9059 56.6624 87.7384 56.4182L87.596 56.5159C87.7312 56.7131 87.8078 57.0864 87.8078 57.6588H87.9806ZM87.7387 56.4186C87.4517 55.995 86.9516 55.7943 86.2674 55.7943V55.967C86.92 55.967 87.353 56.1572 87.5957 56.5155L87.7387 56.4186ZM86.2674 55.7943C85.8176 55.7943 85.3785 55.9053 84.951 56.1254L85.0301 56.279C85.435 56.0704 85.8471 55.967 86.2674 55.967V55.7943ZM84.9505 56.1257C84.5313 56.345 84.2345 56.608 84.0722 56.9189L84.2254 56.9988C84.3658 56.7297 84.6302 56.4882 85.0306 56.2787L84.9505 56.1257ZM84.0624 56.9589V60.2881H84.2352V56.9589H84.0624ZM89.7442 60.2881V60.3744H89.8306V60.2881H89.7442ZM89.4037 60.2881H89.3173V60.3744H89.4037V60.2881ZM89.4037 53.4026V53.3163H89.3173V53.4026H89.4037ZM89.7442 53.4026H89.8306V53.3163H89.7442V53.4026ZM89.7442 57.9803H89.6578V58.1645L89.7994 58.0467L89.7442 57.9803ZM92.5532 55.6442V55.5578H92.522L92.498 55.5778L92.5532 55.6442ZM93.0923 55.6442L93.1467 55.7113L93.3362 55.5578H93.0923V55.6442ZM91.0021 57.3372L90.9478 57.2701L90.8791 57.3257L90.9363 57.3931L91.0021 57.3372ZM93.5085 60.2881V60.3744H93.6952L93.5743 60.2322L93.5085 60.2881ZM93.064 60.2881L92.998 60.3438L93.0239 60.3744H93.064V60.2881ZM90.7467 57.5453L90.8127 57.4895L90.7581 57.4249L90.6923 57.4782L90.7467 57.5453ZM89.7442 58.3586L89.6898 58.2916L89.6578 58.3175V58.3586H89.7442ZM89.7442 60.2017H89.4037V60.3744H89.7442V60.2017ZM89.4901 60.2881V53.4026H89.3173V60.2881H89.4901ZM89.4037 53.489H89.7442V53.3163H89.4037V53.489ZM89.6578 53.4026V57.9803H89.8306V53.4026H89.6578ZM89.7994 58.0467L92.6084 55.7106L92.498 55.5778L89.689 57.9139L89.7994 58.0467ZM92.5532 55.7306H93.0923V55.5578H92.5532V55.7306ZM93.038 55.5771L90.9478 57.2701L91.0565 57.4043L93.1467 55.7113L93.038 55.5771ZM90.9363 57.3931L93.4427 60.344L93.5743 60.2322L91.0679 57.2813L90.9363 57.3931ZM93.5085 60.2017H93.064V60.3744H93.5085V60.2017ZM93.1299 60.2324L90.8127 57.4895L90.6808 57.601L92.998 60.3438L93.1299 60.2324ZM90.6923 57.4782L89.6898 58.2916L89.7986 58.4257L90.8012 57.6123L90.6923 57.4782ZM89.6578 58.3586V60.2881H89.8306V58.3586H89.6578ZM97.8576 60.2881V60.3744H97.944V60.2881H97.8576ZM97.4888 60.2881H97.4024V60.3744H97.4888V60.2881ZM97.4888 54.1309H97.5751V54.0446H97.4888V54.1309ZM94.9067 54.1309H94.8204V54.2173H94.9067V54.1309ZM94.9067 53.7715V53.6851H94.8204V53.7715H94.9067ZM100.515 53.7715H100.602V53.6851H100.515V53.7715ZM100.515 54.1309V54.2173H100.602V54.1309H100.515ZM97.8576 54.1309V54.0446H97.7713V54.1309H97.8576ZM97.8576 60.2017H97.4888V60.3744H97.8576V60.2017ZM97.5751 60.2881V54.1309H97.4024V60.2881H97.5751ZM97.4888 54.0446H94.9067V54.2173H97.4888V54.0446ZM94.9931 54.1309V53.7715H94.8204V54.1309H94.9931ZM94.9067 53.8579H100.515V53.6851H94.9067V53.8579ZM100.429 53.7715V54.1309H100.602V53.7715H100.429ZM100.515 54.0446H97.8576V54.2173H100.515V54.0446ZM97.7713 54.1309V60.2881H97.944V54.1309H97.7713ZM104.715 59.8246L104.771 59.8906L104.801 59.8648V59.8246H104.715ZM103.845 60.2503L103.868 60.3334L103.87 60.333L103.845 60.2503ZM100.61 59.7584L100.553 59.8234L100.554 59.8242L100.61 59.7584ZM100.629 56.1644L100.685 56.2305L100.685 56.2301L100.629 56.1644ZM104.223 56.0887L104.164 56.1521L104.165 56.1526L104.223 56.0887ZM104.828 58.0749V58.1613H104.9L104.913 58.0908L104.828 58.0749ZM100.222 58.0749V57.9885H100.134L100.136 58.0767L100.222 58.0749ZM100.894 59.522L100.838 59.5876L100.838 59.5881L100.894 59.522ZM104.677 59.4369V59.3505H104.645L104.62 59.3717L104.677 59.4369ZM104.715 59.4369H104.801V59.3505H104.715V59.4369ZM104.497 57.7439V57.8302H104.584V57.7439H104.497ZM103.987 56.3535L103.926 56.4152L103.927 56.4158L103.987 56.3535ZM101.433 56.0414L101.464 56.1222L101.465 56.1216L101.433 56.0414ZM100.601 56.6657L100.533 56.6114L100.533 56.6122L100.601 56.6657ZM100.222 57.7439L100.136 57.74L100.132 57.8302H100.222V57.7439ZM104.659 59.7586C104.47 59.9184 104.192 60.0559 103.82 60.1675L103.87 60.333C104.254 60.2176 104.556 60.0713 104.771 59.8906L104.659 59.7586ZM103.821 60.1672C103.45 60.2723 103.08 60.3247 102.71 60.3247V60.4974C103.096 60.4974 103.483 60.4426 103.868 60.3333L103.821 60.1672ZM102.71 60.3247C101.834 60.3247 101.157 60.1106 100.666 59.6927L100.554 59.8242C101.085 60.2764 101.807 60.4974 102.71 60.4974V60.3247ZM100.667 59.6934C100.183 59.2702 99.9398 58.7054 99.9398 57.9898H99.7671C99.7671 58.7496 100.028 59.3639 100.553 59.8234L100.667 59.6934ZM99.9398 57.9898C99.9398 57.229 100.19 56.6465 100.685 56.2305L100.573 56.0983C100.034 56.5525 99.7671 57.1869 99.7671 57.9898H99.9398ZM100.685 56.2301C101.185 55.803 101.786 55.5887 102.492 55.5887V55.416C101.748 55.416 101.107 55.6431 100.573 56.0987L100.685 56.2301ZM102.492 55.5887C103.208 55.5887 103.762 55.7796 104.164 56.1521L104.282 56.0253C103.839 55.6159 103.239 55.416 102.492 55.416V55.5887ZM104.165 56.1526C104.566 56.5179 104.77 57.0225 104.77 57.6777H104.943C104.943 56.9835 104.725 56.4288 104.281 56.0249L104.165 56.1526ZM104.77 57.6777C104.77 57.839 104.761 57.9655 104.743 58.059L104.913 58.0908C104.934 57.9825 104.943 57.8442 104.943 57.6777H104.77ZM104.828 57.9885H100.222V58.1613H104.828V57.9885ZM100.136 58.0767C100.149 58.6931 100.383 59.199 100.838 59.5876L100.95 59.4563C100.534 59.101 100.321 58.6422 100.309 58.0731L100.136 58.0767ZM100.838 59.5881C101.294 59.9712 101.928 60.1569 102.729 60.1569V59.9842C101.953 59.9842 101.364 59.8042 100.949 59.4559L100.838 59.5881ZM102.729 60.1569C103.557 60.1569 104.229 59.9415 104.734 59.502L104.62 59.3717C104.154 59.7772 103.527 59.9842 102.729 59.9842V60.1569ZM104.677 59.5232H104.715V59.3505H104.677V59.5232ZM104.628 59.4369V59.8246H104.801V59.4369H104.628ZM104.584 57.7439V57.6588H104.411V57.7439H104.584ZM104.584 57.6588C104.584 57.0968 104.406 56.6379 104.046 56.2913L103.927 56.4158C104.248 56.7249 104.411 57.1362 104.411 57.6588H104.584ZM104.047 56.2919C103.684 55.9358 103.138 55.7659 102.426 55.7659V55.9386C103.114 55.9386 103.608 56.1029 103.926 56.4152L104.047 56.2919ZM102.426 55.7659C102.068 55.7659 101.727 55.831 101.401 55.9612L101.465 56.1216C101.77 55.9997 102.09 55.9386 102.426 55.9386V55.7659ZM101.402 55.9607C101.071 56.0866 100.781 56.3047 100.533 56.6114L100.668 56.72C100.899 56.4339 101.164 56.2359 101.464 56.1222L101.402 55.9607ZM100.533 56.6122C100.287 56.9245 100.156 57.3018 100.136 57.74L100.309 57.7477C100.327 57.341 100.448 56.9996 100.668 56.7191L100.533 56.6122ZM100.222 57.8302H104.497V57.6575H100.222V57.8302ZM109.936 59.853L109.993 59.9179L110.023 59.8921V59.853H109.936ZM109.104 60.2692L109.081 60.1858L109.081 60.1858L109.104 60.2692ZM106.059 59.749L106.003 59.8149L106.003 59.8153L106.059 59.749ZM106.077 56.1833L106.133 56.2495L106.133 56.2495L106.077 56.1833ZM109.151 55.6631L109.124 55.7449L109.125 55.7454L109.151 55.6631ZM109.898 56.0509H109.985V56.0113L109.955 55.9855L109.898 56.0509ZM109.898 56.5049V56.5912H109.985V56.5049H109.898ZM109.861 56.5049L109.793 56.5591L109.819 56.5912H109.861V56.5049ZM109.113 56.032L109.142 55.9505L109.142 55.9505L109.113 56.032ZM106.371 56.4008L106.422 56.4706L106.422 56.4701L106.371 56.4008ZM105.86 58.9545L105.936 58.9139L105.936 58.9139L105.86 58.9545ZM106.456 59.6166L106.409 59.6893L106.411 59.6906L106.456 59.6166ZM107.241 59.9571L107.218 60.0402L107.218 60.0402L107.241 59.9571ZM109.889 59.4747V59.3883H109.859L109.835 59.4075L109.889 59.4747ZM109.936 59.4747H110.023V59.3883H109.936V59.4747ZM109.879 59.7881C109.684 59.9601 109.419 60.0937 109.081 60.1858L109.127 60.3525C109.483 60.2554 109.773 60.1116 109.993 59.9179L109.879 59.7881ZM109.081 60.1858C108.742 60.2784 108.396 60.3247 108.045 60.3247V60.4974C108.412 60.4974 108.773 60.4491 109.127 60.3525L109.081 60.1858ZM108.045 60.3247C107.267 60.3247 106.626 60.1091 106.114 59.6826L106.003 59.8153C106.551 60.2716 107.233 60.4974 108.045 60.4974V60.3247ZM106.114 59.683C105.605 59.2526 105.35 58.6908 105.35 57.9898H105.178C105.178 58.739 105.453 59.35 106.003 59.8149L106.114 59.683ZM105.35 57.9898C105.35 57.2632 105.612 56.686 106.133 56.2495L106.022 56.1171C105.459 56.5886 105.178 57.2157 105.178 57.9898H105.35ZM106.133 56.2495C106.657 55.811 107.329 55.5887 108.158 55.5887V55.416C107.297 55.416 106.583 55.6477 106.022 56.1171L106.133 56.2495ZM108.158 55.5887C108.496 55.5887 108.818 55.6409 109.124 55.7449L109.179 55.5813C108.855 55.471 108.514 55.416 108.158 55.416V55.5887ZM109.125 55.7454C109.433 55.8439 109.671 55.9685 109.842 56.1163L109.955 55.9855C109.761 55.818 109.5 55.6841 109.178 55.5809L109.125 55.7454ZM109.812 56.0509V56.5049H109.985V56.0509H109.812ZM109.898 56.4185H109.861V56.5912H109.898V56.4185ZM109.928 56.4507C109.757 56.2384 109.492 56.0734 109.142 55.9505L109.085 56.1134C109.416 56.2301 109.649 56.3804 109.793 56.5591L109.928 56.4507ZM109.142 55.9505C108.794 55.8279 108.456 55.7659 108.13 55.7659V55.9386C108.434 55.9386 108.752 55.9964 109.085 56.1134L109.142 55.9505ZM108.13 55.7659C107.432 55.7659 106.827 55.9535 106.319 56.3315L106.422 56.4701C106.897 56.1167 107.465 55.9386 108.13 55.9386V55.7659ZM106.32 56.3311C105.803 56.7089 105.547 57.2566 105.547 57.9614H105.719C105.719 57.3042 105.955 56.8116 106.422 56.4706L106.32 56.3311ZM105.547 57.9614C105.547 58.3514 105.625 58.6969 105.784 58.9951L105.936 58.9139C105.793 58.6447 105.719 58.3281 105.719 57.9614H105.547ZM105.784 58.9951C105.941 59.2906 106.15 59.5229 106.409 59.6893L106.502 59.5439C106.27 59.395 106.081 59.1859 105.936 58.9139L105.784 58.9951ZM106.411 59.6906C106.67 59.8458 106.939 59.9624 107.218 60.0402L107.264 59.8739C107.001 59.8004 106.746 59.69 106.5 59.5425L106.411 59.6906ZM107.218 60.0402C107.496 60.1181 107.785 60.1569 108.083 60.1569V59.9842C107.8 59.9842 107.527 59.9474 107.264 59.8739L107.218 60.0402ZM108.083 60.1569C108.812 60.1569 109.434 59.9531 109.943 59.5419L109.835 59.4075C109.36 59.7908 108.778 59.9842 108.083 59.9842V60.1569ZM109.889 59.5611H109.936V59.3883H109.889V59.5611ZM109.85 59.4747V59.853H110.023V59.4747H109.85ZM110.932 60.2881V60.3744H111.019V60.2881H110.932ZM110.592 60.2881H110.506V60.3744H110.592V60.2881ZM110.592 53.4026V53.3163H110.506V53.4026H110.592ZM110.932 53.4026H111.019V53.3163H110.932V53.4026ZM110.932 56.5143H110.846V56.7897L111.003 56.5637L110.932 56.5143ZM111.812 55.805L111.775 55.7268L111.775 55.727L111.812 55.805ZM114.895 56.5333L114.979 56.5102L114.978 56.509L114.895 56.5333ZM115.018 60.2881V60.3744H115.105V60.2881H115.018ZM114.678 60.2881H114.591V60.3744H114.678V60.2881ZM114.441 56.467L114.368 56.513L114.369 56.5145L114.441 56.467ZM111.774 56.2022L111.735 56.1254L111.734 56.1257L111.774 56.2022ZM110.932 56.9589L110.856 56.9189L110.846 56.9377V56.9589H110.932ZM110.932 60.2017H110.592V60.3744H110.932V60.2017ZM110.678 60.2881V53.4026H110.506V60.2881H110.678ZM110.592 53.489H110.932V53.3163H110.592V53.489ZM110.846 53.4026V56.5143H111.019V53.4026H110.846ZM111.003 56.5637C111.195 56.2883 111.475 56.0607 111.849 55.883L111.775 55.727C111.379 55.915 111.073 56.1603 110.861 56.465L111.003 56.5637ZM111.849 55.8832C112.227 55.7064 112.655 55.6171 113.136 55.6171V55.4443C112.633 55.4443 112.179 55.5378 111.775 55.7268L111.849 55.8832ZM113.136 55.6171C113.616 55.6171 113.991 55.6993 114.266 55.8564C114.539 56.012 114.721 56.244 114.812 56.5575L114.978 56.509C114.874 56.1541 114.665 55.8849 114.352 55.7063C114.041 55.5292 113.633 55.4443 113.136 55.4443V55.6171ZM114.812 56.5563C114.891 56.8427 114.932 57.2002 114.932 57.6304H115.105C115.105 57.1905 115.063 56.8165 114.979 56.5102L114.812 56.5563ZM114.932 57.6304V60.2881H115.105V57.6304H114.932ZM115.018 60.2017H114.678V60.3744H115.018V60.2017ZM114.764 60.2881V57.6588H114.591V60.2881H114.764ZM114.764 57.6588C114.764 57.1002 114.686 56.6813 114.513 56.4196L114.369 56.5145C114.512 56.732 114.591 57.1075 114.591 57.6588H114.764ZM114.514 56.4211C114.246 55.9944 113.746 55.7943 113.051 55.7943V55.967C113.717 55.967 114.145 56.1578 114.368 56.513L114.514 56.4211ZM113.051 55.7943C112.601 55.7943 112.162 55.9053 111.735 56.1254L111.814 56.279C112.219 56.0704 112.631 55.967 113.051 55.967V55.7943ZM111.734 56.1257C111.315 56.345 111.018 56.608 110.856 56.9189L111.009 56.9988C111.149 56.7297 111.414 56.4882 111.814 56.2787L111.734 56.1257ZM110.846 56.9589V60.2881H111.019V56.9589H110.846ZM120.08 60.2881V60.3744H120.167V60.2881H120.08ZM119.711 60.2881H119.625V60.3744H119.711V60.2881ZM119.711 54.1309H119.798V54.0446H119.711V54.1309ZM117.129 54.1309H117.043V54.2173H117.129V54.1309ZM117.129 53.7715V53.6851H117.043V53.7715H117.129ZM122.738 53.7715H122.824V53.6851H122.738V53.7715ZM122.738 54.1309V54.2173H122.824V54.1309H122.738ZM120.08 54.1309V54.0446H119.994V54.1309H120.08ZM120.08 60.2017H119.711V60.3744H120.08V60.2017ZM119.798 60.2881V54.1309H119.625V60.2881H119.798ZM119.711 54.0446H117.129V54.2173H119.711V54.0446ZM117.216 54.1309V53.7715H117.043V54.1309H117.216ZM117.129 53.8579H122.738V53.6851H117.129V53.8579ZM122.652 53.7715V54.1309H122.824V53.7715H122.652ZM122.738 54.0446H120.08V54.2173H122.738V54.0446ZM119.994 54.1309V60.2881H120.167V54.1309H119.994ZM123.377 60.2881V60.3744H123.464V60.2881H123.377ZM123.037 60.2881H122.951V60.3744H123.037V60.2881ZM123.037 53.4026V53.3163H122.951V53.4026H123.037ZM123.377 53.4026H123.464V53.3163H123.377V53.4026ZM123.377 56.5143H123.291V56.7897L123.448 56.5637L123.377 56.5143ZM124.257 55.805L124.22 55.7268L124.22 55.727L124.257 55.805ZM127.34 56.5333L127.424 56.5102L127.423 56.509L127.34 56.5333ZM127.463 60.2881V60.3744H127.55V60.2881H127.463ZM127.123 60.2881H127.036V60.3744H127.123V60.2881ZM126.886 56.467L126.813 56.513L126.814 56.5145L126.886 56.467ZM124.219 56.2022L124.18 56.1254L124.179 56.1257L124.219 56.2022ZM123.377 56.9589L123.301 56.9189L123.291 56.9377V56.9589H123.377ZM123.377 60.2017H123.037V60.3744H123.377V60.2017ZM123.123 60.2881V53.4026H122.951V60.2881H123.123ZM123.037 53.489H123.377V53.3163H123.037V53.489ZM123.291 53.4026V56.5143H123.464V53.4026H123.291ZM123.448 56.5637C123.64 56.2883 123.92 56.0607 124.294 55.883L124.22 55.727C123.825 55.915 123.518 56.1603 123.307 56.465L123.448 56.5637ZM124.294 55.8832C124.672 55.7064 125.1 55.6171 125.581 55.6171V55.4443C125.078 55.4443 124.624 55.5378 124.22 55.7268L124.294 55.8832ZM125.581 55.6171C126.061 55.6171 126.436 55.6993 126.711 55.8564C126.984 56.012 127.166 56.244 127.257 56.5575L127.423 56.509C127.319 56.1541 127.11 55.8849 126.797 55.7063C126.486 55.5292 126.079 55.4443 125.581 55.4443V55.6171ZM127.257 56.5563C127.336 56.8427 127.377 57.2002 127.377 57.6304H127.55C127.55 57.1905 127.508 56.8165 127.424 56.5102L127.257 56.5563ZM127.377 57.6304V60.2881H127.55V57.6304H127.377ZM127.463 60.2017H127.123V60.3744H127.463V60.2017ZM127.209 60.2881V57.6588H127.036V60.2881H127.209ZM127.209 57.6588C127.209 57.1002 127.131 56.6813 126.959 56.4196L126.814 56.5145C126.957 56.732 127.036 57.1075 127.036 57.6588H127.209ZM126.959 56.4211C126.691 55.9944 126.192 55.7943 125.496 55.7943V55.967C126.162 55.967 126.59 56.1578 126.813 56.513L126.959 56.4211ZM125.496 55.7943C125.046 55.7943 124.607 55.9053 124.18 56.1254L124.259 56.279C124.664 56.0704 125.076 55.967 125.496 55.967V55.7943ZM124.179 56.1257C123.76 56.345 123.463 56.608 123.301 56.9189L123.454 56.9988C123.594 56.7297 123.859 56.4882 124.259 56.2787L124.179 56.1257ZM123.291 56.9589V60.2881H123.464V56.9589H123.291ZM128.973 60.2881V60.3744H129.059V60.2881H128.973ZM128.632 60.2881H128.546V60.3744H128.632V60.2881ZM128.632 55.6442V55.5578H128.546V55.6442H128.632ZM128.973 55.6442H129.059V55.5578H128.973V55.6442ZM129.058 54.3201L129 54.2561L128.997 54.259L129.058 54.3201ZM128.547 54.3295L128.486 54.3907L128.489 54.3937L128.547 54.3295ZM128.547 53.8283L128.605 53.8925L128.605 53.8922L128.547 53.8283ZM129.058 53.8283L128.997 53.8896L129.003 53.8951L129.058 53.8283ZM128.973 60.2017H128.632V60.3744H128.973V60.2017ZM128.719 60.2881V55.6442H128.546V60.2881H128.719ZM128.632 55.7306H128.973V55.5578H128.632V55.7306ZM128.886 55.6442V60.2881H129.059V55.6442H128.886ZM129.076 54.0742C129.076 54.1528 129.05 54.2108 129 54.2562L129.116 54.384C129.205 54.3032 129.248 54.1973 129.248 54.0742H129.076ZM128.997 54.259C128.953 54.3027 128.892 54.3283 128.803 54.3283V54.501C128.928 54.501 129.037 54.4636 129.119 54.3811L128.997 54.259ZM128.803 54.3283C128.711 54.3283 128.648 54.3043 128.605 54.2653L128.489 54.3937C128.572 54.4682 128.68 54.501 128.803 54.501V54.3283ZM128.608 54.2685C128.565 54.2248 128.539 54.1634 128.539 54.0742H128.366C128.366 54.1993 128.404 54.3082 128.486 54.3906L128.608 54.2685ZM128.539 54.0742C128.539 53.9845 128.565 53.9287 128.605 53.8925L128.489 53.7641C128.404 53.8413 128.366 53.9494 128.366 54.0742H128.539ZM128.605 53.8922C128.656 53.8456 128.723 53.82 128.812 53.82V53.6473C128.687 53.6473 128.577 53.6848 128.489 53.7644L128.605 53.8922ZM128.812 53.82C128.893 53.82 128.952 53.8446 128.997 53.8893L129.119 53.7672C129.038 53.6858 128.933 53.6473 128.812 53.6473V53.82ZM129.003 53.8951C129.049 53.9322 129.076 53.9873 129.076 54.0742H129.248C129.248 53.9467 129.206 53.8378 129.113 53.7614L129.003 53.8951ZM130.55 60.2881V60.3744H130.637V60.2881H130.55ZM130.21 60.2881H130.124V60.3744H130.21V60.2881ZM130.21 55.6442V55.5578H130.124V55.6442H130.21ZM130.55 55.6442H130.637V55.5578H130.55V55.6442ZM130.55 56.5143H130.464V56.7897L130.621 56.5637L130.55 56.5143ZM131.43 55.805L131.393 55.7268L131.393 55.727L131.43 55.805ZM134.523 56.5427L134.44 56.5675L134.44 56.5675L134.523 56.5427ZM134.636 60.2881V60.3744H134.723V60.2881H134.636ZM134.296 60.2881H134.209V60.3744H134.296V60.2881ZM134.069 56.467L133.997 56.5155L133.998 56.5159L134.069 56.467ZM131.392 56.2022L131.353 56.1254L131.352 56.1257L131.392 56.2022ZM130.55 56.9589L130.474 56.9189L130.464 56.9377V56.9589H130.55ZM130.55 60.2017H130.21V60.3744H130.55V60.2017ZM130.296 60.2881V55.6442H130.124V60.2881H130.296ZM130.21 55.7306H130.55V55.5578H130.21V55.7306ZM130.464 55.6442V56.5143H130.637V55.6442H130.464ZM130.621 56.5637C130.813 56.2883 131.093 56.0607 131.467 55.883L131.393 55.727C130.997 55.915 130.691 56.1603 130.479 56.465L130.621 56.5637ZM131.467 55.8832C131.845 55.7064 132.273 55.6171 132.754 55.6171V55.4443C132.251 55.4443 131.797 55.5378 131.393 55.7268L131.467 55.8832ZM132.754 55.6171C133.234 55.6171 133.609 55.7 133.886 55.8587C134.161 56.0159 134.345 56.2505 134.44 56.5675L134.605 56.518C134.499 56.1603 134.287 55.8889 133.972 55.7087C133.66 55.53 133.252 55.4443 132.754 55.4443V55.6171ZM134.44 56.5675C134.512 56.8077 134.55 57.1603 134.55 57.6304H134.723C134.723 57.1546 134.685 56.7821 134.605 56.5179L134.44 56.5675ZM134.55 57.6304V60.2881H134.723V57.6304H134.55ZM134.636 60.2017H134.296V60.3744H134.636V60.2017ZM134.382 60.2881V57.6588H134.209V60.2881H134.382ZM134.382 57.6588C134.382 57.0835 134.307 56.6624 134.14 56.4182L133.998 56.5159C134.133 56.7131 134.209 57.0864 134.209 57.6588H134.382ZM134.14 56.4186C133.853 55.995 133.353 55.7943 132.669 55.7943V55.967C133.322 55.967 133.755 56.1572 133.997 56.5155L134.14 56.4186ZM132.669 55.7943C132.219 55.7943 131.78 55.9053 131.353 56.1254L131.432 56.279C131.837 56.0704 132.249 55.967 132.669 55.967V55.7943ZM131.352 56.1257C130.933 56.345 130.636 56.608 130.474 56.9189L130.627 56.9988C130.767 56.7297 131.032 56.4882 131.432 56.2787L131.352 56.1257ZM130.464 56.9589V60.2881H130.637V56.9589H130.464ZM136.146 60.2881V60.3744H136.232V60.2881H136.146ZM135.805 60.2881H135.719V60.3744H135.805V60.2881ZM135.805 53.4026V53.3163H135.719V53.4026H135.805ZM136.146 53.4026H136.232V53.3163H136.146V53.4026ZM136.146 57.9803H136.059V58.1645L136.201 58.0467L136.146 57.9803ZM138.955 55.6442V55.5578H138.924L138.9 55.5778L138.955 55.6442ZM139.494 55.6442L139.548 55.7113L139.738 55.5578H139.494V55.6442ZM137.404 57.3372L137.349 57.2701L137.281 57.3257L137.338 57.3931L137.404 57.3372ZM139.91 60.2881V60.3744H140.097L139.976 60.2322L139.91 60.2881ZM139.466 60.2881L139.4 60.3438L139.425 60.3744H139.466V60.2881ZM137.148 57.5453L137.214 57.4895L137.16 57.4249L137.094 57.4782L137.148 57.5453ZM136.146 58.3586L136.091 58.2916L136.059 58.3175V58.3586H136.146ZM136.146 60.2017H135.805V60.3744H136.146V60.2017ZM135.892 60.2881V53.4026H135.719V60.2881H135.892ZM135.805 53.489H136.146V53.3163H135.805V53.489ZM136.059 53.4026V57.9803H136.232V53.4026H136.059ZM136.201 58.0467L139.01 55.7106L138.9 55.5778L136.091 57.9139L136.201 58.0467ZM138.955 55.7306H139.494V55.5578H138.955V55.7306ZM139.44 55.5771L137.349 57.2701L137.458 57.4043L139.548 55.7113L139.44 55.5771ZM137.338 57.3931L139.844 60.344L139.976 60.2322L137.47 57.2813L137.338 57.3931ZM139.91 60.2017H139.466V60.3744H139.91V60.2017ZM139.532 60.2324L137.214 57.4895L137.082 57.601L139.4 60.3438L139.532 60.2324ZM137.094 57.4782L136.091 58.2916L136.2 58.4257L137.203 57.6123L137.094 57.4782ZM136.059 58.3586V60.2881H136.232V58.3586H136.059ZM147.778 53.7715H147.864V53.6851H147.778V53.7715ZM147.399 59.295L147.327 59.2476L147.327 59.2481L147.399 59.295ZM146.463 60.0989L146.423 60.0222L146.423 60.0222L146.463 60.0989ZM142.32 59.2382L142.397 59.1979L142.396 59.1975L142.32 59.2382ZM142.027 53.7715V53.6851H141.941V53.7715H142.027ZM142.396 53.7715H142.482V53.6851H142.396V53.7715ZM142.727 59.1626L142.803 59.1209L142.802 59.1191L142.727 59.1626ZM143.484 59.7963L143.447 59.8746L143.448 59.8748L143.484 59.7963ZM147.011 59.1815L147.08 59.2343L147.08 59.2337L147.011 59.1815ZM147.399 53.7715V53.6851H147.313V53.7715H147.399ZM147.691 53.7715V57.498H147.864V53.7715H147.691ZM147.691 57.498C147.691 58.3058 147.565 58.8842 147.327 59.2476L147.471 59.3424C147.738 58.9365 147.864 58.3169 147.864 57.498H147.691ZM147.327 59.2481C147.129 59.5545 146.829 59.8131 146.423 60.0222L146.502 60.1757C146.929 59.9559 147.254 59.6787 147.472 59.3419L147.327 59.2481ZM146.423 60.0222C146.023 60.2286 145.523 60.3341 144.921 60.3341V60.5069C145.543 60.5069 146.071 60.398 146.502 60.1757L146.423 60.0222ZM144.921 60.3341C143.618 60.3341 142.791 59.9453 142.397 59.1979L142.244 59.2786C142.682 60.1075 143.588 60.5069 144.921 60.5069V60.3341ZM142.396 59.1975C142.211 58.8511 142.113 58.298 142.113 57.5263H141.941C141.941 58.3058 142.038 58.894 142.244 59.279L142.396 59.1975ZM142.113 57.5263V53.7715H141.941V57.5263H142.113ZM142.027 53.8579H142.396V53.6851H142.027V53.8579ZM142.31 53.7715V57.4412H142.482V53.7715H142.31ZM142.31 57.4412C142.31 58.2157 142.42 58.808 142.652 59.2061L142.802 59.1191C142.592 58.7605 142.482 58.2052 142.482 57.4412H142.31ZM142.651 59.2042C142.802 59.4778 143.071 59.6996 143.447 59.8746L143.52 59.718C143.165 59.5525 142.93 59.3518 142.803 59.121L142.651 59.2042ZM143.448 59.8748C143.835 60.0518 144.321 60.138 144.902 60.138V59.9653C144.336 59.9653 143.877 59.8812 143.52 59.7177L143.448 59.8748ZM144.902 60.138C145.879 60.138 146.611 59.8417 147.08 59.2343L146.943 59.1287C146.517 59.6814 145.843 59.9653 144.902 59.9653V60.138ZM147.08 59.2337C147.357 58.8695 147.486 58.2616 147.486 57.4318H147.313C147.313 58.2539 147.183 58.8125 146.943 59.1293L147.08 59.2337ZM147.486 57.4318V53.7715H147.313V57.4318H147.486ZM147.399 53.8579H147.778V53.6851H147.399V53.8579ZM148.398 59.8436H148.311V59.8829L148.341 59.9087L148.398 59.8436ZM148.398 59.4179V59.3316H148.311V59.4179H148.398ZM148.436 59.4179L148.497 59.3569L148.471 59.3316H148.436V59.4179ZM149.268 59.9003L149.24 59.9821L149.242 59.9827L149.268 59.9003ZM150.734 58.2073L150.756 58.1238L150.756 58.1237L150.734 58.2073ZM149.608 57.9141L149.63 57.8305L149.63 57.8305L149.608 57.9141ZM149.041 55.8523L149.087 55.9253L149.088 55.9247L149.041 55.8523ZM151.424 55.6347L151.4 55.7177L151.402 55.7181L151.424 55.6347ZM152.105 55.9374H152.192V55.8956L152.159 55.8697L152.105 55.9374ZM152.105 56.3725V56.4588H152.192V56.3725H152.105ZM152.058 56.3725L151.999 56.4359L152.024 56.4588H152.058V56.3725ZM151.368 56.0036L151.339 56.0852L151.341 56.0859L151.368 56.0036ZM149.098 57.3277L149.042 57.3941L149.045 57.3965L149.098 57.3277ZM149.902 57.6493L149.923 57.5657L149.923 57.5655L149.902 57.6493ZM151.074 57.952L151.053 58.0356L151.053 58.0357L151.074 57.952ZM151.869 60.0516L151.921 60.1202L151.921 60.1202L151.869 60.0516ZM149.24 60.2597L149.215 60.3426L149.216 60.3427L149.24 60.2597ZM148.484 59.8436V59.4179H148.311V59.8436H148.484ZM148.398 59.5043H148.436V59.3316H148.398V59.5043ZM148.375 59.479C148.588 59.6926 148.878 59.8593 149.24 59.9821L149.296 59.8185C148.951 59.7017 148.687 59.5469 148.497 59.3569L148.375 59.479ZM149.242 59.9827C149.61 60.0989 149.994 60.1569 150.393 60.1569V59.9842C150.011 59.9842 149.645 59.9287 149.294 59.818L149.242 59.9827ZM150.393 60.1569C150.929 60.1569 151.345 60.0761 151.63 59.9032C151.922 59.726 152.069 59.4562 152.069 59.1058H151.896C151.896 59.3986 151.778 59.6111 151.54 59.7555C151.296 59.9042 150.917 59.9842 150.393 59.9842V60.1569ZM152.069 59.1058C152.069 58.8608 151.958 58.662 151.748 58.5149L151.649 58.6564C151.817 58.7741 151.896 58.9221 151.896 59.1058H152.069ZM151.748 58.5149C151.546 58.3733 151.212 58.2441 150.756 58.1238L150.712 58.2908C151.164 58.4101 151.473 58.5332 151.649 58.6564L151.748 58.5149ZM150.756 58.1237L149.63 57.8305L149.587 57.9977L150.712 58.2909L150.756 58.1237ZM149.63 57.8305C149.27 57.7382 149.01 57.6021 148.84 57.4282C148.673 57.2565 148.588 57.0422 148.588 56.7792H148.415C148.415 57.0836 148.515 57.3422 148.717 57.5488C148.916 57.7533 149.209 57.9009 149.587 57.9978L149.63 57.8305ZM148.588 56.7792C148.588 56.4208 148.75 56.1381 149.087 55.9253L148.995 55.7793C148.613 56.0204 148.415 56.3556 148.415 56.7792H148.588ZM149.088 55.9247C149.429 55.7036 149.896 55.5887 150.498 55.5887V55.416C149.876 55.416 149.372 55.5343 148.994 55.7798L149.088 55.9247ZM150.498 55.5887C150.805 55.5887 151.105 55.6317 151.4 55.7176L151.449 55.5518C151.138 55.4613 150.821 55.416 150.498 55.416V55.5887ZM151.402 55.7181C151.699 55.7987 151.914 55.8957 152.052 56.0051L152.159 55.8697C151.995 55.7395 151.755 55.6347 151.447 55.5514L151.402 55.7181ZM152.019 55.9374V56.3725H152.192V55.9374H152.019ZM152.105 56.2861H152.058V56.4588H152.105V56.2861ZM152.117 56.309C151.941 56.1464 151.698 56.0183 151.394 55.9213L151.341 56.0859C151.63 56.178 151.848 56.2958 151.999 56.4359L152.117 56.309ZM151.396 55.922C151.097 55.818 150.791 55.7659 150.479 55.7659V55.9386C150.771 55.9386 151.058 55.9874 151.339 56.0852L151.396 55.922ZM150.479 55.7659C149.937 55.7659 149.518 55.841 149.231 56.0015C149.086 56.0825 148.973 56.186 148.897 56.3134C148.821 56.441 148.784 56.5878 148.784 56.7508H148.957C148.957 56.6143 148.987 56.499 149.045 56.4019C149.103 56.3047 149.192 56.2211 149.315 56.1523C149.564 56.0133 149.948 55.9386 150.479 55.9386V55.7659ZM148.784 56.7508C148.784 57.0264 148.866 57.2468 149.042 57.3941L149.153 57.2614C149.027 57.1565 148.957 56.9922 148.957 56.7508H148.784ZM149.045 57.3965C149.218 57.5273 149.5 57.6379 149.881 57.7331L149.923 57.5655C149.547 57.4716 149.293 57.3677 149.15 57.259L149.045 57.3965ZM149.88 57.7329L151.053 58.0356L151.096 57.8683L149.923 57.5657L149.88 57.7329ZM151.053 58.0357C151.47 58.1413 151.774 58.2791 151.975 58.4442L152.085 58.3109C151.856 58.123 151.524 57.977 151.096 57.8682L151.053 58.0357ZM151.975 58.4442C152.167 58.6024 152.265 58.8194 152.265 59.1058H152.438C152.438 58.7743 152.321 58.5058 152.085 58.3109L151.975 58.4442ZM152.265 59.1058C152.265 59.462 152.118 59.7525 151.816 59.983L151.921 60.1202C152.263 59.859 152.438 59.519 152.438 59.1058H152.265ZM151.816 59.983C151.517 60.2119 151.039 60.3341 150.365 60.3341V60.5069C151.053 60.5069 151.578 60.3832 151.921 60.1202L151.816 59.983ZM150.365 60.3341C149.995 60.3341 149.628 60.2817 149.263 60.1767L149.216 60.3427C149.595 60.4521 149.978 60.5069 150.365 60.5069V60.3341ZM149.264 60.1768C148.905 60.0716 148.637 59.9376 148.455 59.7784L148.341 59.9087C148.549 60.09 148.843 60.2334 149.215 60.3426L149.264 60.1768Z" fill="black"/>
<path d="M36.5705 40.0027L53.8345 34.3291L65.6387 62.812L49.59 42.6365L36.5705 40.0027Z" fill="#6CC7A3"/>
<path d="M52.5166 23.073C52.9847 27.1292 48.5515 26.9732 46.2764 26.5832L30.4808 26.7782C24.0845 27.5582 20.2754 32.9534 19.1703 35.5535C16.0502 44.2899 21.3804 50.6341 24.4355 52.7142C30.8318 56.7703 36.981 54.6643 39.2561 53.1042L44.5213 49.3991C45.9254 48.151 47.7064 48.489 48.4215 48.814C50.4496 50.3741 49.9165 52.0642 49.3965 52.7142C47.2124 55.3663 43.2863 57.9794 41.5962 58.9544C30.0518 64.8827 20.4054 58.3044 17.0253 54.2742C9.22496 46.3179 12.2151 35.0985 14.6852 30.4833C20.3014 22.371 28.2057 20.6029 31.4558 20.7329L46.6664 20.5379L49.3965 20.3429C51.2686 20.0309 52.2566 22.163 52.5166 23.073Z" fill="#6CC7A3"/>
</svg>
